<?xml version="1.0" standalone="no"?>
<!DOCTYPE svg PUBLIC "-//W3C//DTD SVG 20010904//EN"
 "http://www.w3.org/TR/2001/REC-SVG-20010904/DTD/svg10.dtd">
<svg version="1.0" xmlns="http://www.w3.org/2000/svg"
 width="30px" height="30px" viewBox="0 0 204.000000 192.000000"
 preserveAspectRatio="xMidYMid meet">

<g transform="translate(0.000000,192.000000) scale(0.100000,-0.100000)"
fill="#000000" stroke="none">
<path d="M566 1870 c-121 -62 -190 -115 -290 -220 -346 -369 -362 -951 -36
-1341 141 -168 359 -309 479 -309 l51 0 0 320 0 320 -105 0 -105 0 2 163 3
162 101 0 101 0 6 140 c8 203 37 292 124 378 90 91 187 122 378 120 72 -1 150
-5 175 -10 l45 -9 3 -145 3 -146 -104 1 c-90 0 -109 -3 -152 -24 -73 -36 -95
-85 -95 -207 l0 -93 159 0 c88 0 162 -4 165 -8 3 -5 -8 -78 -23 -163 l-27
-154 -137 -3 -137 -3 0 -319 0 -320 113 0 c112 0 114 0 198 41 255 123 454
358 533 630 55 192 55 383 0 576 -79 272 -267 497 -523 626 l-95 47 -356 0
-357 0 -97 -50z"/>
</g>
</svg>
